# xmcd CD database file
#
# Track frame offsets:
#	150
#	14047
#	34764
#	47260
#	67122
#	81527
#	96208
#	119692
#	132553
#
# Disc length: 2155 seconds
#
# Revision: 0
# Processed by: cddbd v1.5.1PL0 Copyright (c) Steve Scherf et al.
# Submitted via: CDex 1.51
#
DISCID=83086909
DTITLE=Laurel Masse - Easy Living
DYEAR=1986
DGENRE=Jazz
TTITLE0=Jackie
TTITLE1=Easy Living
TTITLE2=I'm Old-Fashioned
TTITLE3=Dindi
TTITLE4=Cow Cow Boogie
TTITLE5=Ding Dong(The Witch Is Dead)
TTITLE6=Do You Know What It Means To Miss New Orleans?
TTITLE7=The Telephone Song
TTITLE8=That's All
EXTD=YEAR: 1986
EXTT0=
EXTT1=
EXTT2=
EXTT3=
EXTT4=
EXTT5=
EXTT6=
EXTT7=
EXTT8=
PLAYORDER=
